<?xml version="1.0" standalone="no"?>
<!DOCTYPE svg PUBLIC "-//W3C//DTD SVG 20010904//EN"
 "http://www.w3.org/TR/2001/REC-SVG-20010904/DTD/svg10.dtd">
<svg version="1.0" xmlns="http://www.w3.org/2000/svg"
 width="612.000000pt" height="612.000000pt" viewBox="0 0 612.000000 612.000000"
 preserveAspectRatio="xMidYMid meet">
<metadata>
Created by potrace 1.11, written by Peter Selinger 2001-2013
</metadata>
<g transform="translate(0.000000,612.000000) scale(0.100000,-0.100000)"
fill="#000000" stroke="none">
<path d="M2755 5620 c-33 -16 -62 -26 -64 -24 -2 2 -12 -1 -22 -7 -13 -7 -19
-6 -19 1 0 6 -4 8 -10 5 -5 -3 -10 -2 -10 3 0 10 -66 10 -76 -1 -4 -4 -15 -7
-23 -7 -25 0 -85 -64 -149 -157 -31 -46 -72 -104 -90 -131 -30 -43 -52 -84
-80 -153 -6 -15 -6 -32 -1 -41 6 -10 6 -19 0 -22 -5 -4 -8 -17 -6 -31 1 -14
-1 -25 -6 -25 -5 0 -6 -6 -4 -12 10 -29 17 -77 21 -146 2 -40 6 -77 9 -82 3
-5 -12 -18 -34 -30 -46 -23 -69 -59 -77 -124 -6 -38 -2 -53 21 -93 16 -26 31
-50 35 -53 4 -3 20 -29 36 -59 16 -30 53 -79 81 -110 77 -82 78 -83 81 -119 2
-22 -8 -55 -33 -105 -35 -70 -40 -75 -197 -192 -89 -66 -166 -125 -172 -131
-6 -5 -72 -50 -146 -99 -170 -112 -213 -147 -315 -265 -46 -52 -99 -113 -119
-135 -43 -47 -78 -117 -117 -234 -29 -85 -34 -122 -44 -336 -4 -66 -8 -138
-11 -160 -11 -89 -10 -330 2 -436 17 -159 84 -461 149 -678 31 -102 62 -198
69 -215 43 -99 49 -127 42 -214 -6 -69 -31 -219 -50 -297 -7 -31 -40 -121 -46
-130 -5 -5 -9 -13 -9 -17 -1 -5 -1 -9 -2 -10 -17 -57 -12 -466 7 -530 5 -17
98 -18 1779 -18 l1774 0 -89 89 c-82 83 -89 92 -88 129 0 48 -28 148 -52 182
-9 14 -23 42 -31 62 -7 21 -22 48 -34 60 -33 36 -111 140 -125 168 -8 14 -14
48 -15 75 -1 28 -9 84 -18 125 -9 41 -28 143 -43 225 -27 149 -59 249 -130
408 -25 55 -36 96 -40 145 -13 199 -14 201 -71 336 -14 33 -33 100 -43 147
-23 110 -36 134 -100 184 l-52 40 -3 110 c-2 93 -8 128 -38 225 -45 147 -64
222 -72 285 -14 116 -29 176 -89 353 -106 313 -145 379 -272 462 -91 59 -198
111 -256 124 -45 10 -38 58 22 150 71 108 100 169 106 224 3 26 21 122 41 215
29 143 33 172 23 202 -6 19 -19 41 -29 47 -36 26 -41 49 -27 130 3 15 2 29 -3
32 -6 4 -7 20 -2 57 1 3 10 16 20 28 23 27 21 97 -4 158 -15 35 -69 93 -88 93
-5 0 -5 5 -2 10 3 6 2 10 -3 10 -5 0 -12 8 -16 18 -3 9 -9 23 -12 31 -4 8 -2
11 4 7 11 -7 11 12 -1 32 -5 6 -6 12 -2 12 3 0 1 9 -5 20 -6 11 -17 20 -25 20
-8 0 -14 4 -13 9 2 5 -1 9 -5 9 -5 0 -21 11 -35 24 -15 13 -34 24 -42 23 -8 0
-20 4 -27 10 -39 34 -93 87 -93 92 0 18 -46 42 -72 38 -16 -3 -34 -2 -41 2
-30 19 -122 10 -182 -17z"/>
</g>
</svg>
